<?xml version="1.0" ?><svg height="297.000000mm" version="1.0" viewBox="0 0 794 1123" width="210.000000mm" xmlns="http://www.w3.org/2000/svg">
  <g font-family="Helvetica" font-size="12pt" stroke-linecap="round">
    <text fill="#000000" font-family="helvetica" font-size="12pt" textLength="69" x="68.00" y="222.25">Naftalena</text>
    <g stroke="#000000" stroke-width="1.0">
      <line x1="99.00" x2="99.00" y1="157.00" y2="183.44"/>
    </g>
    <g stroke="#000000" stroke-width="1.0">
      <line x1="53.15" x2="76.07" y1="183.44" y2="196.69"/>
    </g>
    <g stroke="#000000" stroke-width="1.0">
      <line x1="144.85" x2="144.85" y1="157.00" y2="183.44"/>
    </g>
    <g stroke="#000000" stroke-width="1.0">
      <line x1="121.93" x2="144.85" y1="143.75" y2="157.00"/>
      <line x1="121.79" x2="138.99" y1="150.61" y2="160.54"/>
    </g>
    <g stroke="#000000" stroke-width="1.0">
      <line x1="99.00" x2="76.07" y1="183.44" y2="196.69"/>
      <line x1="93.13" x2="75.94" y1="179.90" y2="189.83"/>
    </g>
    <g stroke="#000000" stroke-width="1.0">
      <line x1="144.85" x2="121.93" y1="183.44" y2="196.69"/>
      <line x1="138.99" x2="121.79" y1="179.90" y2="189.83"/>
    </g>
    <g stroke="#000000" stroke-width="1.0">
      <line x1="76.07" x2="99.00" y1="143.75" y2="157.00"/>
      <line x1="75.94" x2="93.13" y1="150.61" y2="160.54"/>
    </g>
    <g stroke="#000000" stroke-width="1.0">
      <line x1="53.15" x2="53.15" y1="157.00" y2="183.44"/>
      <line x1="59.15" x2="59.15" y1="160.30" y2="180.13"/>
    </g>
    <g stroke="#000000" stroke-width="1.0">
      <line x1="53.15" x2="76.07" y1="157.00" y2="143.75"/>
    </g>
    <g stroke="#000000" stroke-width="1.0">
      <line x1="99.00" x2="121.93" y1="157.00" y2="143.75"/>
    </g>
    <g stroke="#000000" stroke-width="1.0">
      <line x1="99.00" x2="121.93" y1="183.44" y2="196.69"/>
    </g>
    <text fill="#000000" font-family="helvetica" font-size="14pt" x="193.00" y="181.00">+</text>
    <text fill="#000000" font-family="helvetica" font-size="12pt" textLength="29" x="254.00" y="180.25">SO<tspan baseline-shift="sub" font-size="75%">3</tspan></text>
    <polyline fill="none" points="341.62,169.18 384.97,139.53" stroke="#000000" stroke-width="1.0"/>
    <polygon fill="#000000" fill-rule="evenodd" points="341.62,169.18 335.02,173.70 344.97,170.53" stroke="#000000" stroke-width="1"/>
    <polyline fill="none" points="331.63,168.75 374.98,139.09" stroke="#000000" stroke-width="1.0"/>
    <polygon fill="#000000" fill-rule="evenodd" points="374.98,139.09 381.58,134.57 371.64,137.74" stroke="#000000" stroke-width="1"/>
    <polyline fill="none" points="338.28,187.72 382.77,215.61" stroke="#000000" stroke-width="1.0"/>
    <polygon fill="#000000" fill-rule="evenodd" points="338.28,187.72 331.50,183.47 338.38,191.32" stroke="#000000" stroke-width="1"/>
    <polyline fill="none" points="334.69,178.38 379.18,206.28" stroke="#000000" stroke-width="1.0"/>
    <polygon fill="#000000" fill-rule="evenodd" points="379.18,206.28 385.96,210.53 379.08,202.68" stroke="#000000" stroke-width="1"/>
    <g stroke="#000000" stroke-width="1.0">
      <line x1="501.86" x2="478.94" y1="128.43" y2="141.67"/>
      <line x1="496.00" x2="478.81" y1="124.89" y2="134.82"/>
    </g>
    <g stroke="#000000" stroke-width="1.0">
      <line x1="478.94" x2="478.94" y1="88.76" y2="62.28"/>
    </g>
    <g stroke="#000000" stroke-width="1.0">
      <line x1="456.02" x2="456.02" y1="102.00" y2="128.43"/>
    </g>
    <g stroke="#000000" stroke-width="1.0">
      <line x1="501.86" x2="501.86" y1="102.00" y2="128.43"/>
    </g>
    <g stroke="#000000" stroke-width="1.0">
      <line x1="410.14" x2="433.06" y1="102.00" y2="88.76"/>
    </g>
    <g stroke="#000000" stroke-width="1.0">
      <line x1="433.06" x2="456.02" y1="88.76" y2="102.00"/>
      <line x1="432.93" x2="450.15" y1="95.61" y2="105.54"/>
    </g>
    <g stroke="#000000" stroke-width="1.0">
      <line x1="456.02" x2="478.94" y1="128.43" y2="141.67"/>
    </g>
    <g stroke="#000000" stroke-width="1.0">
      <line x1="410.14" x2="433.06" y1="128.43" y2="141.67"/>
    </g>
    <g stroke="#000000" stroke-width="1.0">
      <line x1="456.02" x2="433.06" y1="128.43" y2="141.67"/>
      <line x1="450.15" x2="432.93" y1="124.89" y2="134.82"/>
    </g>
    <g stroke="#000000" stroke-width="1.0">
      <line x1="456.02" x2="478.94" y1="102.00" y2="88.76"/>
    </g>
    <g stroke="#000000" stroke-width="1.0">
      <line x1="410.14" x2="410.14" y1="102.00" y2="128.43"/>
      <line x1="416.14" x2="416.14" y1="105.30" y2="125.13"/>
    </g>
    <g stroke="#000000" stroke-width="1.0">
      <line x1="478.94" x2="501.86" y1="88.76" y2="102.00"/>
      <line x1="478.81" x2="496.00" y1="95.61" y2="105.54"/>
    </g>
    <g stroke="#000000" stroke-width="1.0">
      <line x1="452.02" x2="474.94" y1="209.00" y2="195.76"/>
    </g>
    <g stroke="#000000" stroke-width="1.0">
      <line x1="497.86" x2="497.86" y1="209.00" y2="235.43"/>
    </g>
    <g stroke="#000000" stroke-width="1.0">
      <line x1="406.14" x2="406.14" y1="209.00" y2="235.43"/>
      <line x1="412.14" x2="412.14" y1="212.30" y2="232.13"/>
    </g>
    <g stroke="#000000" stroke-width="1.0">
      <line x1="406.14" x2="429.06" y1="209.00" y2="195.76"/>
    </g>
    <g stroke="#000000" stroke-width="1.0">
      <line x1="474.94" x2="497.86" y1="195.76" y2="209.00"/>
      <line x1="474.81" x2="492.00" y1="202.61" y2="212.54"/>
    </g>
    <g stroke="#000000" stroke-width="1.0">
      <line x1="429.06" x2="452.02" y1="195.76" y2="209.00"/>
      <line x1="428.93" x2="446.15" y1="202.61" y2="212.54"/>
    </g>
    <g stroke="#000000" stroke-width="1.0">
      <line x1="452.02" x2="474.94" y1="235.43" y2="248.67"/>
    </g>
    <g stroke="#000000" stroke-width="1.0">
      <line x1="406.14" x2="429.06" y1="235.43" y2="248.67"/>
    </g>
    <g stroke="#000000" stroke-width="1.0">
      <line x1="452.02" x2="429.06" y1="235.43" y2="248.67"/>
      <line x1="446.15" x2="428.93" y1="231.89" y2="241.82"/>
    </g>
    <g stroke="#000000" stroke-width="1.0">
      <line x1="497.86" x2="474.94" y1="235.43" y2="248.67"/>
      <line x1="492.00" x2="474.81" y1="231.89" y2="241.82"/>
    </g>
    <g stroke="#000000" stroke-width="1.0">
      <line x1="497.86" x2="520.79" y1="209.00" y2="195.76"/>
    </g>
    <g stroke="#000000" stroke-width="1.0">
      <line x1="452.02" x2="452.02" y1="209.00" y2="235.43"/>
    </g>
    <text fill="#000000" font-family="helvetica" font-size="12pt" textLength="42" x="461.00" y="52.25">SO<tspan baseline-shift="sub" font-size="75%">3</tspan>H</text>
    <text fill="#000000" font-family="helvetica" font-size="12pt" textLength="42" x="523.00" y="197.75">SO<tspan baseline-shift="sub" font-size="75%">3</tspan>H</text>
    <text fill="#000000" font-family="helvetica" font-size="12pt" textLength="180" x="380.00" y="171.25">asam-1-naftalenasulfonat</text>
    <text fill="#000000" font-family="helvetica" font-size="12pt" textLength="180" x="381.00" y="276.25">asam-2-naftalenasulfonat</text>
    <text fill="#000000" font-family="helvetica" font-size="12pt" textLength="54" x="83.00" y="381.25">Alcohol</text>
    <text fill="#000000" font-family="helvetica" font-size="12pt" textLength="12" x="193.00" y="379.25">R</text>
    <g stroke="#000000" stroke-width="1.0">
      <line x1="213.00" x2="239.48" y1="373.00" y2="373.00"/>
    </g>
    <text fill="#000000" font-family="helvetica" font-size="12pt" textLength="24" x="252.00" y="379.25">OH</text>
    <text fill="#000000" font-family="helvetica" font-size="12pt" textLength="68" x="76.00" y="465.25">Aldehyde</text>
    <text fill="#000000" font-family="helvetica" font-size="12pt" textLength="12" x="258.00" y="476.25">C</text>
    <text fill="#000000" font-family="helvetica" font-size="12pt" textLength="12" x="213.00" y="509.75">R</text>
    <g stroke="#000000" stroke-width="1.0">
      <line x1="230.60" x2="250.15" y1="497.30" y2="479.44"/>
    </g>
    <g stroke="#000000" stroke-width="1.0">
      <line x1="260.98" x2="260.65" y1="454.48" y2="428.00"/>
      <line x1="264.98" x2="264.65" y1="454.43" y2="427.95"/>
    </g>
    <g stroke="#000000" stroke-width="1.0">
      <line x1="291.49" x2="273.46" y1="496.36" y2="476.97"/>
    </g>
    <text fill="#000000" font-family="helvetica" font-size="12pt" textLength="12" x="300.00" y="510.25">H</text>
    <text fill="#000000" font-family="helvetica" font-size="12pt" textLength="12" x="259.00" y="416.25">O</text>
    <text fill="#000000" font-family="helvetica" font-size="12pt" textLength="50" x="85.00" y="634.25">Alkene</text>
    <text fill="#000000" font-family="helvetica" font-size="12pt" textLength="12" x="334.00" y="597.26">R</text>
    <text fill="#000000" font-family="helvetica" font-size="12pt" textLength="12" x="211.00" y="598.26">R</text>
    <text fill="#000000" font-family="helvetica" font-size="12pt" textLength="12" x="211.00" y="677.26">R</text>
    <text fill="#000000" font-family="helvetica" font-size="12pt" textLength="12" x="332.00" y="676.26">R</text>
    <text fill="#000000" font-family="helvetica" font-size="12pt" textLength="12" x="249.00" y="636.75">C</text>
    <text fill="#000000" font-family="helvetica" font-size="12pt" textLength="12" x="296.00" y="636.75">C</text>
    <g stroke="#000000" stroke-width="1.0">
      <line x1="263.54" x2="290.02" y1="629.86" y2="629.76"/>
      <line x1="263.55" x2="290.03" y1="633.86" y2="633.76"/>
    </g>
    <g stroke="#000000" stroke-width="1.0">
      <line x1="309.58" x2="329.14" y1="616.29" y2="598.43"/>
    </g>
    <g stroke="#000000" stroke-width="1.0">
      <line x1="241.67" x2="222.87" y1="617.95" y2="599.29"/>
    </g>
    <g stroke="#000000" stroke-width="1.0">
      <line x1="223.58" x2="243.14" y1="663.29" y2="645.43"/>
    </g>
    <g stroke="#000000" stroke-width="1.0">
      <line x1="329.66" x2="310.87" y1="661.45" y2="642.80"/>
    </g>
    <text fill="#000000" font-family="helvetica" font-size="12pt" textLength="49" x="86.00" y="802.25">Alkyne</text>
    <text fill="#000000" font-family="helvetica" font-size="12pt" textLength="12" x="352.00" y="792.75">R</text>
    <text fill="#000000" font-family="helvetica" font-size="12pt" textLength="12" x="203.00" y="793.75">R</text>
    <text fill="#000000" font-family="helvetica" font-size="12pt" textLength="12" x="303.00" y="794.74">C</text>
    <text fill="#000000" font-family="helvetica" font-size="12pt" textLength="12" x="251.00" y="795.74">C</text>
    <g stroke="#000000" stroke-width="1.0">
      <line x1="215.99" x2="242.47" y1="789.99" y2="789.99"/>
    </g>
    <g stroke="#000000" stroke-width="1.0">
      <line x1="320.99" x2="347.47" y1="787.99" y2="787.99"/>
    </g>
    <g stroke="#000000" stroke-width="1.0">
      <line x1="269.00" x2="295.48" y1="789.50" y2="789.50"/>
      <line x1="272.31" x2="292.17" y1="785.00" y2="785.00"/>
      <line x1="272.31" x2="292.17" y1="794.00" y2="794.00"/>
    </g>
    <text fill="#000000" font-family="helvetica" font-size="12pt" textLength="46" x="87.00" y="959.25">Amide</text>
    <text fill="#000000" font-family="helvetica" font-size="12pt" textLength="12" x="188.00" y="992.25">R</text>
    <text fill="#000000" font-family="helvetica" font-size="12pt" textLength="12" x="320.00" y="958.25">R</text>
    <text fill="#000000" font-family="helvetica" font-size="12pt" textLength="12" x="320.00" y="1029.25">R</text>
    <text fill="#000000" font-family="helvetica" font-size="12pt" textLength="12" x="231.00" y="953.26">C</text>
    <text fill="#000000" font-family="helvetica" font-size="12pt" textLength="12" x="231.00" y="900.76">O</text>
    <text fill="#000000" font-family="helvetica" font-size="12pt" textLength="12" x="279.00" y="992.25">N</text>
    <g stroke="#000000" stroke-width="1.0">
      <line x1="234.50" x2="234.16" y1="936.99" y2="910.52"/>
      <line x1="238.50" x2="238.16" y1="936.94" y2="910.46"/>
    </g>
    <g stroke="#000000" stroke-width="1.0">
      <line x1="205.58" x2="225.14" y1="977.30" y2="959.45"/>
    </g>
    <g stroke="#000000" stroke-width="1.0">
      <line x1="270.68" x2="251.88" y1="977.95" y2="959.30"/>
    </g>
    <g stroke="#000000" stroke-width="1.0">
      <line x1="293.60" x2="313.15" y1="976.28" y2="958.43"/>
    </g>
    <g stroke="#000000" stroke-width="1.0">
      <line x1="310.68" x2="291.88" y1="1017.95" y2="999.30"/>
    </g>
    <text fill="#000000" font-family="helvetica" font-size="12pt" textLength="63" x="398.00" y="320.25">Aromatic</text>
    <g stroke="#000000" stroke-width="1.0">
      <line x1="548.00" x2="525.07" y1="326.44" y2="339.69"/>
      <line x1="542.13" x2="524.94" y1="322.90" y2="332.83"/>
    </g>
    <g stroke="#000000" stroke-width="1.0">
      <line x1="502.15" x2="525.07" y1="300.00" y2="286.75"/>
    </g>
    <g stroke="#000000" stroke-width="1.0">
      <line x1="502.15" x2="502.15" y1="300.00" y2="326.44"/>
      <line x1="508.15" x2="508.15" y1="303.30" y2="323.13"/>
    </g>
    <g stroke="#000000" stroke-width="1.0">
      <line x1="525.07" x2="548.00" y1="286.75" y2="300.00"/>
      <line x1="524.94" x2="542.13" y1="293.61" y2="303.54"/>
    </g>
    <g stroke="#000000" stroke-width="1.0">
      <line x1="502.15" x2="525.07" y1="326.44" y2="339.69"/>
    </g>
    <g stroke="#000000" stroke-width="1.0">
      <line x1="548.00" x2="548.00" y1="300.00" y2="326.44"/>
    </g>
    <text fill="#000000" font-family="helvetica" font-size="12pt" textLength="112" x="373.00" y="437.25">Carbocylic Acid</text>
    <text fill="#000000" font-family="helvetica" font-size="12pt" textLength="12" x="565.00" y="441.23">C</text>
    <text fill="#000000" font-family="helvetica" font-size="12pt" textLength="12" x="564.00" y="388.76">O</text>
    <text fill="#000000" font-family="helvetica" font-size="12pt" textLength="12" x="526.00" y="478.77">R</text>
    <g stroke="#000000" stroke-width="1.0">
      <line x1="567.50" x2="567.16" y1="422.99" y2="396.52"/>
      <line x1="571.50" x2="571.16" y1="422.94" y2="396.46"/>
    </g>
    <g stroke="#000000" stroke-width="1.0">
      <line x1="538.58" x2="558.14" y1="463.29" y2="445.43"/>
    </g>
    <g stroke="#000000" stroke-width="1.0">
      <line x1="602.48" x2="584.48" y1="465.34" y2="445.97"/>
    </g>
    <text fill="#000000" font-family="helvetica" font-size="12pt" textLength="24" x="600.00" y="481.25">OH</text>
    <text fill="#000000" font-family="helvetica" font-size="12pt" textLength="37" x="411.00" y="598.25">Ester</text>
    <text fill="#000000" font-family="helvetica" font-size="12pt" textLength="12" x="512.00" y="609.73">C</text>
    <text fill="#000000" font-family="helvetica" font-size="12pt" textLength="12" x="511.00" y="557.27">O</text>
    <text fill="#000000" font-family="helvetica" font-size="12pt" textLength="12" x="473.00" y="647.25">R</text>
    <g stroke="#000000" stroke-width="1.0">
      <line x1="513.99" x2="513.65" y1="591.49" y2="565.02"/>
      <line x1="517.99" x2="517.65" y1="591.44" y2="564.96"/>
    </g>
    <g stroke="#000000" stroke-width="1.0">
      <line x1="485.09" x2="504.65" y1="631.79" y2="613.93"/>
    </g>
    <g stroke="#000000" stroke-width="1.0">
      <line x1="548.98" x2="530.97" y1="633.83" y2="614.46"/>
    </g>
    <text fill="#000000" font-family="helvetica" font-size="12pt" textLength="12" x="549.00" y="647.76">O</text>
    <text fill="#000000" font-family="helvetica" font-size="12pt" textLength="12" x="589.00" y="612.25">R</text>
    <g stroke="#000000" stroke-width="1.0">
      <line x1="564.10" x2="583.65" y1="631.28" y2="613.43"/>
    </g>
    <text fill="#000000" font-family="helvetica" font-size="12pt" textLength="38" x="410.00" y="740.75">Ether</text>
    <text fill="#000000" font-family="helvetica" font-size="12pt" textLength="12" x="495.00" y="740.76">R</text>
    <g stroke="#000000" stroke-width="1.0">
      <line x1="511.99" x2="538.47" y1="736.49" y2="736.49"/>
    </g>
    <text fill="#000000" font-family="helvetica" font-size="12pt" textLength="12" x="544.00" y="740.26">O</text>
    <text fill="#000000" font-family="helvetica" font-size="12pt" textLength="12" x="599.00" y="740.75">R</text>
    <g stroke="#000000" stroke-width="1.0">
      <line x1="564.50" x2="590.98" y1="735.50" y2="735.50"/>
    </g>
    <text fill="#000000" font-family="helvetica" font-size="12pt" textLength="51" x="404.00" y="836.25">Ketone</text>
    <text fill="#000000" font-family="helvetica" font-size="12pt" textLength="12" x="523.00" y="850.73">C</text>
    <text fill="#000000" font-family="helvetica" font-size="12pt" textLength="12" x="522.00" y="798.27">O</text>
    <g stroke="#000000" stroke-width="1.0">
      <line x1="524.99" x2="524.65" y1="832.49" y2="806.02"/>
      <line x1="528.99" x2="528.65" y1="832.44" y2="805.96"/>
    </g>
    <g stroke="#000000" stroke-width="1.0">
      <line x1="496.09" x2="515.65" y1="872.79" y2="854.93"/>
    </g>
    <g stroke="#000000" stroke-width="1.0">
      <line x1="559.98" x2="541.97" y1="874.83" y2="855.46"/>
    </g>
    <text fill="#000000" font-family="helvetica" font-size="12pt" textLength="12" x="484.00" y="889.78">R</text>
    <text fill="#000000" font-family="helvetica" font-size="12pt" textLength="12" x="567.00" y="892.78">R</text>
    <text fill="#000000" font-family="helvetica" font-size="12pt" textLength="42" x="408.00" y="958.25">Nitrile</text>
    <text fill="#000000" font-family="helvetica" font-size="12pt" textLength="12" x="502.00" y="958.25">R</text>
    <text fill="#000000" font-family="helvetica" font-size="12pt" textLength="12" x="550.00" y="958.26">C</text>
    <g stroke="#000000" stroke-width="1.0">
      <line x1="514.98" x2="541.46" y1="953.48" y2="953.48"/>
    </g>
    <g stroke="#000000" stroke-width="1.0">
      <line x1="568.01" x2="594.49" y1="953.98" y2="953.98"/>
      <line x1="571.32" x2="591.18" y1="949.48" y2="949.48"/>
      <line x1="571.32" x2="591.18" y1="958.48" y2="958.48"/>
    </g>
    <text fill="#000000" font-family="helvetica" font-size="12pt" textLength="12" x="607.00" y="957.76">N</text>
    <text fill="#000000" font-family="helvetica" font-size="12pt" textLength="36" x="411.00" y="1031.75">Thiol</text>
    <text fill="#000000" font-family="helvetica" font-size="12pt" textLength="12" x="500.00" y="1031.26">R</text>
    <g stroke="#000000" stroke-width="1.0">
      <line x1="519.49" x2="545.97" y1="1026.99" y2="1026.99"/>
    </g>
    <text fill="#000000" font-family="helvetica" font-size="12pt" textLength="23" x="559.00" y="1031.75">SH</text>
  </g>
</svg>